<svg width="20" height="20" viewBox="0 0 20 20" fill="none" xmlns="http://www.w3.org/2000/svg">
<path fill-rule="evenodd" clip-rule="evenodd" d="M14.0549 14.9943H8.38571C8.06064 14.9943 7.79681 14.7304 7.79681 14.4054C7.79681 14.0803 8.06064 13.8165 8.38571 13.8165H14.0549C14.3799 13.8165 14.6438 14.0803 14.6438 14.4054C14.6438 14.7304 14.3799 14.9943 14.0549 14.9943Z" fill="black"/>
<path fill-rule="evenodd" clip-rule="evenodd" d="M14.0549 11.707H8.38571C8.06064 11.707 7.79681 11.4432 7.79681 11.1181C7.79681 10.7931 8.06064 10.5292 8.38571 10.5292H14.0549C14.3799 10.5292 14.6438 10.7931 14.6438 11.1181C14.6438 11.4432 14.3799 11.707 14.0549 11.707Z" fill="black"/>
<path fill-rule="evenodd" clip-rule="evenodd" d="M10.5487 8.42743H8.38547C8.0604 8.42743 7.79657 8.16361 7.79657 7.83853C7.79657 7.51346 8.0604 7.24963 8.38547 7.24963H10.5487C10.8738 7.24963 11.1376 7.51346 11.1376 7.83853C11.1376 8.16361 10.8738 8.42743 10.5487 8.42743Z" fill="black"/>
<mask id="mask0_24_233" style="mask-type:alpha" maskUnits="userSpaceOnUse" x="4" y="3" width="15" height="16">
<path fill-rule="evenodd" clip-rule="evenodd" d="M4.07037 3.23706H18.3333V18.8702H4.07037V3.23706Z" fill="white"/>
</mask>
<g mask="url(#mask0_24_233)">
<path fill-rule="evenodd" clip-rule="evenodd" d="M14.2063 4.41472L8.1689 4.41786C6.34095 4.42886 5.24796 5.55955 5.24796 7.44324V14.6639C5.24796 16.5602 6.35116 17.6925 8.19717 17.6925L14.2346 17.6901C16.0625 17.6791 17.1555 16.5469 17.1555 14.6639V7.44324C17.1555 5.54698 16.0531 4.41472 14.2063 4.41472ZM8.19787 18.8702C5.7292 18.8702 4.07007 17.1797 4.07007 14.6639V7.4432C4.07007 4.90464 5.67737 3.25494 8.16489 3.24002L14.2054 3.23688H14.2062C16.6749 3.23688 18.3332 4.92741 18.3332 7.4432V14.6639C18.3332 17.2017 16.7259 18.8522 14.2384 18.8679L8.19787 18.8702Z" fill="black"/>
</g>
<path d="M2.5 14.1667V6.66669C2.5 3.90526 4.73858 1.66669 7.5 1.66669H14.1667" stroke="black"/>
</svg>
