<svg width="120" height="120" viewBox="0 0 120 120" fill="none" xmlns="http://www.w3.org/2000/svg">
<mask id="mask0_42_750" style="mask-type:alpha" maskUnits="userSpaceOnUse" x="0" y="0" width="120" height="120">
<rect width="120" height="120" fill="#D9D9D9"/>
</mask>
<g mask="url(#mask0_42_750)">
<path d="M55 105V95H45V85H55V74.5C48.4167 73.3333 43.0217 70.1867 38.815 65.06C34.605 59.9367 32.5 54 32.5 47.25C32.5 39.6667 35.1883 33.23 40.565 27.94C45.9383 22.6467 52.4167 20 60 20C67.5833 20 74.0617 22.6467 79.435 27.94C84.8117 33.23 87.5 39.6667 87.5 47.25C87.5 54 85.3967 59.9367 81.19 65.06C76.98 70.1867 71.5833 73.3333 65 74.5V85H75V95H65V105H55ZM60 65C64.8333 65 68.9583 63.2917 72.375 59.875C75.7917 56.4583 77.5 52.3333 77.5 47.5C77.5 42.6667 75.7917 38.5417 72.375 35.125C68.9583 31.7083 64.8333 30 60 30C55.1667 30 51.0417 31.7083 47.625 35.125C44.2083 38.5417 42.5 42.6667 42.5 47.5C42.5 52.3333 44.2083 56.4583 47.625 59.875C51.0417 63.2917 55.1667 65 60 65Z" fill="black"/>
</g>
</svg>
