<svg width="20" height="20" viewBox="0 0 20 20" fill="none" xmlns="http://www.w3.org/2000/svg">
<path fill-rule="evenodd" clip-rule="evenodd" d="M10.2087 7.08337C9.40458 7.08337 8.75041 7.73754 8.75041 8.54254C8.75041 9.34671 9.40458 10 10.2087 10C11.0129 10 11.6671 9.34671 11.6671 8.54254C11.6671 7.73754 11.0129 7.08337 10.2087 7.08337M10.2087 11.25C8.71541 11.25 7.50041 10.0359 7.50041 8.54254C7.50041 7.04837 8.71541 5.83337 10.2087 5.83337C11.7021 5.83337 12.9171 7.04837 12.9171 8.54254C12.9171 10.0359 11.7021 11.25 10.2087 11.25" fill="black"/>
<mask id="mask0_12_123" style="mask-type:alpha" maskUnits="userSpaceOnUse" x="3" y="1" width="15" height="17">
<path fill-rule="evenodd" clip-rule="evenodd" d="M3.33333 1.66669H17.0829V17.9167H3.33333V1.66669Z" fill="white"/>
</mask>
<g mask="url(#mask0_12_123)">
<path fill-rule="evenodd" clip-rule="evenodd" d="M10.2079 2.91669C7.10625 2.91669 4.58292 5.46419 4.58292 8.59419C4.58292 12.5767 9.26958 16.4567 10.2079 16.6634C11.1462 16.4559 15.8329 12.5759 15.8329 8.59419C15.8329 5.46419 13.3096 2.91669 10.2079 2.91669V2.91669ZM10.2079 17.9167C8.71292 17.9167 3.33292 13.29 3.33292 8.59419C3.33292 4.77419 6.41708 1.66669 10.2079 1.66669C13.9987 1.66669 17.0829 4.77419 17.0829 8.59419C17.0829 13.29 11.7029 17.9167 10.2079 17.9167V17.9167Z" fill="black"/>
</g>
</svg>
