<svg width="80" height="80" viewBox="0 0 80 80" fill="none" xmlns="http://www.w3.org/2000/svg">
<path d="M80.0001 0.00012207V30.0001H70.0001V17.1251L50.1251 36.8751C51.7085 39.2085 52.9168 41.6868 53.7501 44.3101C54.5835 46.9368 55.0001 49.6668 55.0001 52.5001C55.0001 60.1668 52.3335 66.6668 47.0001 72.0001C41.6668 77.3335 35.1668 80.0001 27.5001 80.0001C19.8335 80.0001 13.3335 77.3335 8.00012 72.0001C2.66679 66.6668 0.00012207 60.1668 0.00012207 52.5001C0.00012207 44.8335 2.66679 38.3335 8.00012 33.0001C13.3335 27.6668 19.8335 25.0001 27.5001 25.0001C30.2501 25.0001 32.9585 25.3968 35.6251 26.1901C38.2918 26.9801 40.7501 28.2085 43.0001 29.8751L62.8751 10.0001H50.0001V0.00012207H80.0001ZM27.5001 35.0001C22.6668 35.0001 18.5418 36.7085 15.1251 40.1251C11.7085 43.5418 10.0001 47.6668 10.0001 52.5001C10.0001 57.3335 11.7085 61.4585 15.1251 64.8751C18.5418 68.2918 22.6668 70.0001 27.5001 70.0001C32.3335 70.0001 36.4585 68.2918 39.8751 64.8751C43.2918 61.4585 45.0001 57.3335 45.0001 52.5001C45.0001 47.6668 43.2918 43.5418 39.8751 40.1251C36.4585 36.7085 32.3335 35.0001 27.5001 35.0001Z" fill="black"/>
</svg>
