<svg width="20" height="20" viewBox="0 0 20 20" fill="none" xmlns="http://www.w3.org/2000/svg">
<path fill-rule="evenodd" clip-rule="evenodd" d="M13.1592 10.625H3.125C2.78 10.625 2.5 10.345 2.5 10C2.5 9.655 2.78 9.375 3.125 9.375H13.1592C13.5042 9.375 13.7842 9.655 13.7842 10C13.7842 10.345 13.5042 10.625 13.1592 10.625" fill="black"/>
<path fill-rule="evenodd" clip-rule="evenodd" d="M10.7194 13.0542C10.5594 13.0542 10.3986 12.9934 10.2769 12.87C10.0327 12.625 10.0344 12.23 10.2786 11.9867L12.2736 10L10.2786 8.01254C10.0344 7.76921 10.0327 7.37421 10.2769 7.12921C10.5211 6.88421 10.9161 6.88421 11.1602 7.12754L13.6011 9.55754C13.7194 9.67421 13.7852 9.83421 13.7852 10C13.7852 10.1659 13.7194 10.3259 13.6011 10.4425L11.1602 12.8717C11.0386 12.9934 10.8786 13.0542 10.7194 13.0542" fill="black"/>
<path fill-rule="evenodd" clip-rule="evenodd" d="M14.2017 18.3334H10.1308C8.09832 18.3334 6.44415 16.6792 6.44415 14.6459V13.8609C6.44415 13.5159 6.72415 13.2359 7.06915 13.2359C7.41415 13.2359 7.69415 13.5159 7.69415 13.8609V14.6459C7.69415 15.9892 8.78749 17.0834 10.1308 17.0834H14.2017C15.5508 17.0834 16.6483 15.9867 16.6483 14.6367V5.35419C16.6483 4.01085 15.5542 2.91669 14.2108 2.91669H10.14C8.79165 2.91669 7.69415 4.01335 7.69415 5.36169V6.13919C7.69415 6.48419 7.41415 6.76419 7.06915 6.76419C6.72415 6.76419 6.44415 6.48419 6.44415 6.13919V5.36169C6.44415 3.32419 8.10249 1.66669 10.14 1.66669H14.2108C16.2433 1.66669 17.8983 3.32085 17.8983 5.35419V14.6367C17.8983 16.675 16.2392 18.3334 14.2017 18.3334" fill="black"/>
</svg>
