<svg width="24" height="24" viewBox="0 0 24 24" fill="none" xmlns="http://www.w3.org/2000/svg">
<g id="Iconly/Light-Outline/Setting">
<g id="Setting">
<g id="Group 3">
<mask id="mask0_42_400" style="mask-type:alpha" maskUnits="userSpaceOnUse" x="2" y="2" width="20" height="21">
<path id="Clip 2" fill-rule="evenodd" clip-rule="evenodd" d="M2 2.00061H21.2849V22.7216H2V2.00061Z" fill="white"/>
</mask>
<g mask="url(#mask0_42_400)">
<path id="Fill 1" fill-rule="evenodd" clip-rule="evenodd" d="M7.2022 17.4406C7.4312 17.4406 7.6602 17.4696 7.8842 17.5296C8.5602 17.7116 9.1472 18.1636 9.4952 18.7706C9.7212 19.1516 9.8462 19.5966 9.8502 20.0506C9.8502 20.7006 10.3722 21.2216 11.0142 21.2216H12.2672C12.9062 21.2216 13.4282 20.7036 13.4312 20.0646C13.4272 19.3586 13.7032 18.6876 14.2082 18.1826C14.7062 17.6846 15.4022 17.3856 16.0982 17.4056C16.5542 17.4166 16.9932 17.5396 17.3802 17.7596C17.9372 18.0786 18.6482 17.8886 18.9702 17.3386L19.6342 16.2316C19.7822 15.9766 19.8252 15.6566 19.7462 15.3616C19.6682 15.0666 19.4722 14.8106 19.2082 14.6596C18.5902 14.3036 18.1492 13.7296 17.9662 13.0416C17.7852 12.3666 17.8842 11.6296 18.2372 11.0226C18.4672 10.6226 18.8042 10.2856 19.2082 10.0536C19.7502 9.73661 19.9402 9.02761 19.6252 8.47561C19.6122 8.45361 19.6002 8.43061 19.5902 8.40661L19.0042 7.39061C18.6852 6.83561 17.9752 6.64461 17.4182 6.96161C16.8162 7.31761 16.1002 7.41961 15.4122 7.23861C14.7252 7.06061 14.1492 6.62561 13.7902 6.01161C13.5602 5.62761 13.4352 5.18061 13.4312 4.72561C13.4402 4.38361 13.3202 4.07661 13.1022 3.85161C12.8852 3.62761 12.5802 3.50061 12.2672 3.50061H11.0142C10.7042 3.50061 10.4142 3.62161 10.1952 3.83961C9.9772 4.05861 9.8582 4.34961 9.8602 4.65961C9.8392 6.12161 8.6442 7.29861 7.1972 7.29861C6.7332 7.29361 6.2862 7.16861 5.8982 6.93661C5.3532 6.62661 4.6412 6.81761 4.3222 7.37261L3.6452 8.48561C3.3352 9.02361 3.5252 9.73461 4.0772 10.0556C4.8962 10.5296 5.4072 11.4136 5.4072 12.3616C5.4072 13.3096 4.8962 14.1926 4.0752 14.6676C3.5262 14.9856 3.3362 15.6926 3.6542 16.2426L4.2852 17.3306C4.4412 17.6116 4.6962 17.8146 4.9912 17.8976C5.2852 17.9796 5.6092 17.9446 5.8792 17.7946C6.2762 17.5616 6.7382 17.4406 7.2022 17.4406ZM12.2672 22.7216H11.0142C9.5452 22.7216 8.3502 21.5276 8.3502 20.0586C8.3482 19.8776 8.2962 19.6896 8.1992 19.5266C8.0422 19.2526 7.7882 19.0566 7.4952 18.9786C7.2042 18.9006 6.8852 18.9436 6.6232 19.0956C5.9952 19.4456 5.2562 19.5306 4.5802 19.3406C3.9052 19.1496 3.3222 18.6856 2.9802 18.0706L2.3552 16.9936C1.6242 15.7256 2.0592 14.1006 3.3252 13.3686C3.6842 13.1616 3.9072 12.7756 3.9072 12.3616C3.9072 11.9476 3.6842 11.5606 3.3252 11.3536C2.0582 10.6176 1.6242 8.98861 2.3542 7.72061L3.0322 6.60761C3.7532 5.35361 5.3832 4.91161 6.6542 5.64161C6.8272 5.74461 7.0152 5.79661 7.2062 5.79861C7.8292 5.79861 8.3502 5.28461 8.3602 4.65261C8.3562 3.95561 8.6312 3.28661 9.1322 2.78161C9.6352 2.27761 10.3032 2.00061 11.0142 2.00061H12.2672C12.9832 2.00061 13.6792 2.29461 14.1782 2.80561C14.6762 3.31961 14.9512 4.02461 14.9302 4.73961C14.9322 4.90061 14.9852 5.08661 15.0812 5.24961C15.2402 5.51961 15.4912 5.70961 15.7892 5.78761C16.0872 5.86161 16.3992 5.82161 16.6642 5.66461C17.9442 4.93361 19.5732 5.37161 20.3042 6.64161L20.9272 7.72061C20.9432 7.74961 20.9572 7.77761 20.9692 7.80661C21.6312 9.05761 21.1892 10.6326 19.9592 11.3516C19.7802 11.4546 19.6352 11.5986 19.5352 11.7726C19.3802 12.0416 19.3372 12.3616 19.4152 12.6556C19.4952 12.9556 19.6862 13.2046 19.9552 13.3586C20.5622 13.7076 21.0152 14.2956 21.1962 14.9746C21.3772 15.6526 21.2782 16.3886 20.9252 16.9956L20.2612 18.1016C19.5302 19.3576 17.9012 19.7926 16.6342 19.0606C16.4652 18.9636 16.2702 18.9106 16.0762 18.9056H16.0702C15.7812 18.9056 15.4842 19.0286 15.2682 19.2436C15.0492 19.4626 14.9292 19.7546 14.9312 20.0646C14.9242 21.5336 13.7292 22.7216 12.2672 22.7216Z" fill="black"/>
</g>
</g>
<path id="Fill 4" fill-rule="evenodd" clip-rule="evenodd" d="M11.6451 10.4747C10.6051 10.4747 9.75909 11.3217 9.75909 12.3617C9.75909 13.4017 10.6051 14.2467 11.6451 14.2467C12.6851 14.2467 13.5311 13.4017 13.5311 12.3617C13.5311 11.3217 12.6851 10.4747 11.6451 10.4747ZM11.6451 15.7467C9.77809 15.7467 8.25909 14.2287 8.25909 12.3617C8.25909 10.4947 9.77809 8.97473 11.6451 8.97473C13.5121 8.97473 15.0311 10.4947 15.0311 12.3617C15.0311 14.2287 13.5121 15.7467 11.6451 15.7467Z" fill="black"/>
</g>
</g>
</svg>
