<svg width="20" height="20" viewBox="0 0 20 20" fill="none" xmlns="http://www.w3.org/2000/svg">
<path fill-rule="evenodd" clip-rule="evenodd" d="M9.99591 14.5222C9.65091 14.5222 9.37091 14.2422 9.37091 13.8972V11.7831C9.37091 11.4381 9.65091 11.1581 9.99591 11.1581C10.3409 11.1581 10.6209 11.4381 10.6209 11.7831V13.8972C10.6209 14.2422 10.3409 14.5222 9.99591 14.5222" fill="black"/>
<mask id="mask0_27_153" style="mask-type:alpha" maskUnits="userSpaceOnUse" x="1" y="3" width="18" height="10">
<path fill-rule="evenodd" clip-rule="evenodd" d="M1.66681 3.81665H18.325V12.4092H1.66681V3.81665Z" fill="white"/>
</mask>
<g mask="url(#mask0_27_153)">
<path fill-rule="evenodd" clip-rule="evenodd" d="M2.91681 9.49415C4.89681 10.57 7.39348 11.1592 9.99181 11.1592C12.5951 11.1592 15.0943 10.57 17.0751 9.49415V6.99248C17.0751 5.92998 16.216 5.06665 15.1585 5.06665H4.84181C3.78014 5.06665 2.91681 5.92665 2.91681 6.98415V9.49415ZM9.99181 12.4092C7.03764 12.4092 4.19014 11.6942 1.97598 10.3975C1.78431 10.2858 1.66681 10.0808 1.66681 9.85832V6.98415C1.66681 5.23748 3.09098 3.81665 4.84181 3.81665H15.1585C16.9051 3.81665 18.3251 5.24082 18.3251 6.99248V9.85832C18.3251 10.0808 18.2068 10.2858 18.016 10.3975C15.8018 11.6942 12.9518 12.4092 9.99181 12.4092V12.4092Z" fill="black"/>
</g>
<mask id="mask1_27_153" style="mask-type:alpha" maskUnits="userSpaceOnUse" x="6" y="1" width="8" height="5">
<path fill-rule="evenodd" clip-rule="evenodd" d="M6.45422 1.66681H13.5376V5.06339H6.45422V1.66681Z" fill="white"/>
</mask>
<g mask="url(#mask1_27_153)">
<path fill-rule="evenodd" clip-rule="evenodd" d="M12.9126 5.06342C12.5676 5.06342 12.2876 4.78341 12.2876 4.43841V4.13341C12.2876 3.46258 11.7417 2.91675 11.0709 2.91675H8.92089C8.25006 2.91675 7.70422 3.46258 7.70422 4.13341V4.43841C7.70422 4.78341 7.42422 5.06342 7.07922 5.06342C6.73422 5.06342 6.45422 4.78341 6.45422 4.43841V4.13341C6.45422 2.77341 7.56089 1.66675 8.92089 1.66675H11.0709C12.4309 1.66675 13.5376 2.77341 13.5376 4.13341V4.43841C13.5376 4.78341 13.2576 5.06342 12.9126 5.06342" fill="black"/>
</g>
<path fill-rule="evenodd" clip-rule="evenodd" d="M14.8291 18.1168H5.16241C3.43324 18.1168 1.97741 16.766 1.84658 15.041L1.68824 12.9502C1.66241 12.606 1.92074 12.3052 2.26491 12.2793C2.61074 12.2668 2.90908 12.511 2.93574 12.856L3.09324 14.946C3.17491 16.0227 4.08324 16.8668 5.16241 16.8668H14.8291C15.9082 16.8668 16.8174 16.0227 16.8982 14.946L17.0566 12.856C17.0832 12.511 17.3891 12.266 17.7274 12.2793C18.0716 12.3052 18.3291 12.606 18.3032 12.9502L18.1449 15.041C18.0141 16.766 16.5582 18.1168 14.8291 18.1168" fill="black"/>
</svg>
