<?xml version="1.0" encoding="UTF-8"?>
<!DOCTYPE svg PUBLIC "-//W3C//DTD SVG 1.1//EN" "http://www.w3.org/Graphics/SVG/1.1/DTD/svg11.dtd">
<!-- Creator: CorelDRAW 2021 (64-Bit) -->
<svg xmlns="http://www.w3.org/2000/svg" xml:space="preserve" width="76.5436mm" height="123.11mm" version="1.1" style="shape-rendering:geometricPrecision; text-rendering:geometricPrecision; image-rendering:optimizeQuality; fill-rule:evenodd; clip-rule:evenodd"
viewBox="0 0 7640.13 12288.15"
 xmlns:xlink="http://www.w3.org/1999/xlink"
 xmlns:xodm="http://www.corel.com/coreldraw/odm/2003">
 <defs>
  <style type="text/css">
   <![CDATA[
    .fil0 {fill:black}
    .fil1 {fill:black;fill-rule:nonzero}
   ]]>
  </style>
 </defs>
 <g id="Layer_x0020_1">
  <metadata id="CorelCorpID_0Corel-Layer"/>
  <g id="_2037312432512">
   <g>
    <path class="fil0" d="M4229.92 1752.69l1395.93 1395.93 -1528.66 1528.66 -447.4 -447.41 1081.28 -1081.26 -501.15 -501.17 -1081.28 1081.27 -447.39 -447.36 1528.66 -1528.67zm-356.76 3148.6l-724.52 724.53 -2477.2 -2477.2 2477.2 -2477.2 447.41 447.4 -2029.8 2029.78 1582.42 1582.4 277.09 -277.09 447.4 447.4z"/>
    <polygon class="fil0" points="-0,3820.05 3148.64,6968.67 6297.29,3820.05 5849.87,3372.65 3148.64,6073.9 447.41,3372.66 "/>
    <polygon class="fil0" points="3820.06,7640.11 7640.13,3820.05 3820.06,0 3372.67,447.4 6745.33,3820.05 3372.67,7192.7 "/>
   </g>
   <path class="fil1" d="M2173.63 9467.72c-33.66,-64.82 -80.41,-113.75 -140.24,-146.79 -59.84,-33.03 -129.03,-49.55 -207.56,-49.55 -86.01,0 -162.68,19.32 -229.99,57.96 -67.31,38.65 -119.99,93.5 -158.01,164.55 -38.03,71.06 -57.03,153.33 -57.03,246.82 0,93.5 19,176.08 57.03,247.77 38.02,71.68 90.69,126.83 158.01,165.48 67.31,38.64 143.98,57.96 229.99,57.96 115.93,0 210.05,-32.41 282.35,-97.23 72.31,-64.83 116.55,-152.71 132.76,-263.66l-488.04 0 0 -170.15 716.17 0 0 166.42c-13.71,100.97 -49.55,193.84 -107.52,278.61 -57.96,84.76 -133.38,152.4 -226.26,202.88 -92.87,50.49 -196.02,75.73 -309.46,75.73 -122.16,0 -233.73,-28.36 -334.71,-85.08 -100.97,-56.71 -181.07,-135.57 -240.28,-236.54 -59.21,-100.97 -88.82,-215.04 -88.82,-342.19 0,-127.15 29.61,-241.21 88.82,-342.18 59.21,-100.97 139.62,-179.82 241.21,-236.54 101.6,-56.72 212.86,-85.08 333.78,-85.08 138.37,0 261.47,33.97 369.3,101.91 107.83,67.93 186.05,164.23 234.67,288.89l-256.17 0z"/>
   <polygon id="_1" class="fil1" points="3798.55,9093.75 3310.51,10393.32 3063.69,10393.32 2573.78,9093.75 2801.91,9093.75 3187.1,10174.54 3574.17,9093.75 "/>
   <polygon id="_2" class="fil1" points="5043.9,10393.32 4830.73,10393.32 4189.37,9422.85 4189.37,10393.32 3976.19,10393.32 3976.19,9091.87 4189.37,9091.87 4830.73,10060.48 4830.73,9091.87 5043.9,9091.87 "/>
   <path id="_3" class="fil1" d="M5748.85 9093.75c138.37,0 259.6,26.49 363.69,79.47 104.09,52.97 184.5,129.02 241.21,228.13 56.72,99.11 85.08,214.72 85.08,346.86 0,132.13 -28.36,246.82 -85.08,344.06 -56.71,97.23 -137.12,171.72 -241.21,223.45 -104.1,51.73 -225.32,77.6 -363.69,77.6l-424.47 0 0 -1299.57 424.47 0zm0 1125.67c152.09,0 268.64,-41.14 349.67,-123.42 81.03,-82.27 121.54,-198.2 121.54,-347.79 0,-150.84 -40.51,-268.64 -121.54,-353.41 -81.03,-84.77 -197.58,-127.15 -349.67,-127.15l-211.3 0 0 951.78 211.3 0z"/>
   <path id="_4" class="fil1" d="M1373.31 12284.4c-87.26,0 -165.79,-15.27 -235.6,-45.8 -69.81,-30.54 -124.66,-73.86 -164.55,-129.96 -39.89,-56.1 -59.83,-121.54 -59.83,-196.34l228.13 0c4.98,56.1 27.11,102.22 66.38,138.37 39.27,36.15 94.43,54.23 165.48,54.23 73.55,0 130.9,-17.77 172.03,-53.29 41.14,-35.52 61.72,-81.34 61.72,-137.43 0,-43.64 -12.79,-79.16 -38.34,-106.59 -25.55,-27.42 -57.34,-48.61 -95.36,-63.57 -38.02,-14.96 -90.69,-31.16 -158.01,-48.62 -84.77,-22.44 -153.64,-45.19 -206.63,-68.25 -52.98,-23.06 -98.17,-58.9 -135.57,-107.51 -37.39,-48.62 -56.1,-113.45 -56.1,-194.48 0,-74.79 18.71,-140.24 56.1,-196.33 37.4,-56.1 89.76,-99.11 157.08,-129.02 67.31,-29.92 145.22,-44.88 233.73,-44.88 125.91,0 229.06,31.47 309.46,94.42 80.41,62.95 124.97,149.28 133.7,258.98l-235.61 0c-3.74,-47.36 -26.18,-87.88 -67.31,-121.53 -41.13,-33.67 -95.36,-50.5 -162.68,-50.5 -61.09,0 -110.95,15.59 -149.59,46.75 -38.65,31.16 -57.97,76.04 -57.97,134.63 0,39.9 12.16,72.61 36.46,98.17 24.31,25.56 55.17,45.81 92.57,60.78 37.39,14.95 88.51,31.16 153.32,48.62 86.02,23.68 156.14,47.36 210.37,71.05 54.22,23.69 100.34,60.15 138.37,109.4 38.02,49.24 57.02,115 57.02,197.27 0,66.07 -17.76,128.39 -53.29,186.98 -35.52,58.59 -87.26,105.65 -155.2,141.18 -67.93,35.53 -148.03,53.29 -240.28,53.29z"/>
   <path id="_5" class="fil1" d="M2323.22 11414.91l0 570.31c0,38.65 9.04,66.39 27.11,83.21 18.08,16.83 48.93,25.24 92.57,25.24l130.89 0 0 177.64 -168.29 0c-95.99,0 -169.53,-22.44 -220.65,-67.31 -51.1,-44.88 -76.67,-117.8 -76.67,-218.78l0 -570.31 -121.54 0 0 -173.91 121.54 0 0 -256.17 215.04 0 0 256.17 250.56 0 0 173.91 -250.56 0z"/>
   <path id="_6" class="fil1" d="M3703.19 11241.01l0 1030.31 -213.16 0 0 -121.54c-33.66,42.38 -77.6,75.73 -131.82,100.04 -54.23,24.3 -111.88,36.46 -172.97,36.46 -81.03,0 -153.64,-16.83 -217.84,-50.49 -64.2,-33.66 -114.69,-83.52 -151.46,-149.59 -36.77,-66.08 -55.16,-145.86 -55.16,-239.34l0 -605.85 211.3 0 0 574.06c0,92.25 23.06,162.99 69.18,212.23 46.12,49.24 109.08,73.85 188.86,73.85 79.78,0 143.04,-24.61 189.8,-73.85 46.74,-49.25 70.12,-119.99 70.12,-212.23l0 -574.06 213.16 0z"/>
   <path id="_7" class="fil1" d="M3912.62 11751.49c0,-103.47 21.51,-195.09 64.52,-274.87 43,-79.78 101.59,-141.81 175.76,-186.05 74.17,-44.26 156.76,-66.39 247.76,-66.39 67.32,0 133.7,14.65 199.15,43.95 65.45,29.3 117.49,68.25 156.13,116.86l0 -497.38 215.04 0 0 1383.71 -215.04 0 0 -155.2c-34.9,49.87 -83.2,91 -144.91,123.41 -61.71,32.41 -132.45,48.62 -212.23,48.62 -89.75,0 -171.72,-22.75 -245.89,-68.25 -74.17,-45.5 -132.76,-109.08 -175.76,-190.72 -43.01,-81.66 -64.52,-174.22 -64.52,-277.68zm843.32 3.74c0,-71.06 -14.64,-132.76 -43.94,-185.12 -29.3,-52.36 -67.62,-92.25 -115,-119.68 -47.37,-27.43 -98.49,-41.13 -153.33,-41.13 -54.85,0 -105.96,13.4 -153.32,40.2 -47.37,26.81 -85.71,66.08 -115.01,117.81 -29.3,51.73 -43.94,113.13 -43.94,184.18 0,71.06 14.64,133.39 43.94,186.99 29.3,53.6 67.94,94.43 115.93,122.48 48,28.05 98.8,42.07 152.4,42.07 54.85,0 105.96,-13.71 153.33,-41.14 47.37,-27.42 85.7,-67.62 115,-120.61 29.3,-52.98 43.94,-115 43.94,-186.05z"/>
   <path id="_8" class="fil1" d="M5359.91 11104.51c-38.65,0 -71.06,-13.1 -97.24,-39.27 -26.17,-26.18 -39.27,-58.59 -39.27,-97.24 0,-38.65 13.1,-71.06 39.27,-97.23 26.18,-26.18 58.59,-39.27 97.24,-39.27 37.4,0 69.18,13.09 95.36,39.27 26.18,26.17 39.27,58.58 39.27,97.23 0,38.65 -13.09,71.06 -39.27,97.24 -26.18,26.17 -57.96,39.27 -95.36,39.27zm104.71 136.5l0 1030.31 -213.17 0 0 -1030.31 213.17 0z"/>
   <path id="_9" class="fil1" d="M6192.01 12288.15c-97.24,0 -185.13,-22.13 -263.66,-66.38 -78.53,-44.26 -140.24,-106.59 -185.12,-186.99 -44.88,-80.41 -67.31,-173.59 -67.31,-279.55 0,-104.71 23.06,-197.58 69.18,-278.61 46.12,-81.03 109.08,-143.36 188.86,-186.99 79.78,-43.63 168.92,-65.45 267.4,-65.45 98.48,0 187.61,21.82 267.39,65.45 79.78,43.63 142.73,105.96 188.86,186.99 46.12,81.03 69.18,173.9 69.18,278.61 0,104.71 -23.69,197.58 -71.06,278.61 -47.36,81.03 -111.88,143.67 -193.53,187.93 -81.65,44.25 -171.72,66.38 -270.2,66.38zm0 -185.12c54.85,0 106.27,-13.1 154.26,-39.27 47.99,-26.18 86.95,-65.45 116.87,-117.81 29.91,-52.35 44.88,-115.93 44.88,-190.72 0,-74.79 -14.33,-138.06 -43.01,-189.8 -28.67,-51.73 -66.7,-90.69 -114.07,-116.86 -47.36,-26.18 -98.48,-39.27 -153.32,-39.27 -54.85,0 -105.65,13.09 -152.4,39.27 -46.75,26.17 -83.83,65.13 -111.26,116.86 -27.42,51.73 -41.13,115.01 -41.13,189.8 0,110.94 28.36,196.65 85.08,257.11 56.71,60.46 128.08,90.69 214.1,90.69z"/>
  </g>
 </g>
</svg>
